<svg viewBox="0 0 250 37" width="250" height="37" xmlns="http://www.w3.org/2000/svg">
<path d="M 26.328 35.785 L 23.942 27.952 L 11.944 27.952 L 9.558 35.785 L 2.04 35.785 L 13.655 2.741 L 22.186 2.741 L 33.846 35.785 Z M 22.276 22.099 L 19.89 14.446 Q 19.665 13.68 19.294 12.476 Q 18.922 11.272 18.551 10.023 Q 18.18 8.773 17.954 7.85 Q 17.729 8.773 17.335 10.135 Q 16.941 11.497 16.581 12.712 Q 16.221 13.928 16.064 14.446 L 13.7 22.099 Z" style="fill: rgb(98, 133, 246);"/>
<path d="M 45.407 36.235 Q 41.198 36.235 38.553 32.938 Q 35.908 29.64 35.908 23.247 Q 35.908 16.787 38.586 13.467 Q 41.265 10.146 45.587 10.146 Q 47.388 10.146 48.761 10.642 Q 50.134 11.137 51.136 11.97 Q 52.137 12.803 52.835 13.838 L 53.06 13.838 Q 52.925 13.118 52.734 11.711 Q 52.542 10.304 52.542 8.818 L 52.542 0.76 L 59.43 0.76 L 59.43 35.785 L 54.163 35.785 L 52.835 32.521 L 52.542 32.521 Q 51.89 33.557 50.911 34.401 Q 49.931 35.245 48.581 35.74 Q 47.23 36.235 45.407 36.235 Z M 47.815 30.765 Q 50.629 30.765 51.788 29.088 Q 52.948 27.411 53.015 24.035 L 53.015 23.292 Q 53.015 19.623 51.89 17.676 Q 50.764 15.729 47.703 15.729 Q 45.429 15.729 44.146 17.687 Q 42.863 19.645 42.863 23.337 Q 42.863 27.029 44.158 28.897 Q 45.452 30.765 47.815 30.765 Z" style="fill: rgb(98, 133, 246);"/>
<path d="M 96.166 10.146 Q 100.442 10.146 102.637 12.341 Q 104.832 14.536 104.832 19.375 L 104.832 35.785 L 97.944 35.785 L 97.944 21.086 Q 97.944 18.385 97.021 17.012 Q 96.098 15.639 94.162 15.639 Q 91.439 15.639 90.291 17.586 Q 89.143 19.533 89.143 23.157 L 89.143 35.785 L 82.277 35.785 L 82.277 21.086 Q 82.277 19.285 81.872 18.07 Q 81.467 16.854 80.634 16.247 Q 79.801 15.639 78.495 15.639 Q 76.582 15.639 75.49 16.595 Q 74.399 17.552 73.937 19.409 Q 73.476 21.266 73.476 23.945 L 73.476 35.785 L 66.61 35.785 L 66.61 10.619 L 71.855 10.619 L 72.778 13.838 L 73.161 13.838 Q 73.926 12.532 75.085 11.722 Q 76.244 10.912 77.64 10.529 Q 79.036 10.146 80.476 10.146 Q 83.245 10.146 85.17 11.047 Q 87.094 11.947 88.13 13.838 L 88.737 13.838 Q 89.863 11.902 91.923 11.024 Q 93.982 10.146 96.166 10.146 Z" style="fill: rgb(98, 133, 246);"/>
<path d="M 118.741 10.619 L 118.741 35.785 L 111.876 35.785 L 111.876 10.619 Z M 115.32 0.76 Q 116.851 0.76 117.954 1.469 Q 119.057 2.178 119.057 4.114 Q 119.057 6.027 117.954 6.759 Q 116.851 7.49 115.32 7.49 Q 113.767 7.49 112.675 6.759 Q 111.583 6.027 111.583 4.114 Q 111.583 2.178 112.675 1.469 Q 113.767 0.76 115.32 0.76 Z" style="fill: rgb(98, 133, 246);"/>
<path d="M 140.248 10.146 Q 144.277 10.146 146.731 12.341 Q 149.184 14.536 149.184 19.375 L 149.184 35.785 L 142.319 35.785 L 142.319 21.086 Q 142.319 18.385 141.339 17.012 Q 140.36 15.639 138.267 15.639 Q 135.116 15.639 133.968 17.777 Q 132.82 19.916 132.82 23.945 L 132.82 35.785 L 125.954 35.785 L 125.954 10.619 L 131.199 10.619 L 132.122 13.838 L 132.504 13.838 Q 133.315 12.532 134.519 11.722 Q 135.723 10.912 137.198 10.529 Q 138.672 10.146 140.248 10.146 Z" style="fill: rgb(98, 133, 246);"/>
<path d="M 171.123 6.387 Q 168.579 6.387 166.565 7.276 Q 164.55 8.166 163.155 9.865 Q 161.759 11.564 161.016 13.951 Q 160.273 16.337 160.273 19.33 Q 160.273 23.315 161.455 26.218 Q 162.637 29.122 165.023 30.698 Q 167.409 32.273 171.033 32.273 Q 173.194 32.273 175.164 31.88 Q 177.133 31.486 179.091 30.855 L 179.091 34.817 Q 177.201 35.537 175.186 35.886 Q 173.171 36.235 170.47 36.235 Q 165.428 36.235 162.085 34.142 Q 158.743 32.048 157.099 28.255 Q 155.456 24.463 155.456 19.308 Q 155.456 15.571 156.492 12.476 Q 157.527 9.381 159.53 7.119 Q 161.534 4.857 164.449 3.63 Q 167.364 2.403 171.168 2.403 Q 173.644 2.403 175.996 2.932 Q 178.349 3.461 180.329 4.406 L 178.619 8.256 Q 176.976 7.513 175.096 6.95 Q 173.216 6.387 171.123 6.387 Z" style="fill: rgb(98, 133, 246);"/>
<path d="M 195.273 2.876 Q 199.438 2.876 202.15 3.9 Q 204.863 4.924 206.191 7.006 Q 207.519 9.088 207.519 12.285 Q 207.519 14.806 206.596 16.539 Q 205.673 18.272 204.176 19.375 Q 202.679 20.478 200.968 21.109 L 210.175 35.785 L 204.885 35.785 L 196.872 22.324 L 190.816 22.324 L 190.816 35.785 L 186.202 35.785 L 186.202 2.876 Z M 194.981 6.792 L 190.816 6.792 L 190.816 18.475 L 195.296 18.475 Q 199.19 18.475 200.991 16.956 Q 202.792 15.436 202.792 12.465 Q 202.792 9.381 200.878 8.087 Q 198.965 6.792 194.981 6.792 Z" style="fill: rgb(98, 133, 246);"/>
<path d="M 229.478 35.785 L 219.214 7.49 L 219.034 7.49 Q 219.101 8.413 219.18 9.865 Q 219.259 11.317 219.315 13.016 Q 219.371 14.716 219.371 16.359 L 219.371 35.785 L 215.139 35.785 L 215.139 2.876 L 221.78 2.876 L 231.527 29.685 L 231.684 29.685 L 241.678 2.876 L 248.274 2.876 L 248.274 35.785 L 243.817 35.785 L 243.817 16.089 Q 243.817 14.603 243.862 12.994 Q 243.907 11.384 243.986 9.933 Q 244.064 8.481 244.132 7.535 L 243.929 7.535 L 233.417 35.785 Z" style="fill: rgb(98, 133, 246);"/>
</svg>