<svg width="314" height="314" viewBox="0 0 314 314" fill="none" xmlns="http://www.w3.org/2000/svg">
<path d="M122.259 23.2499C143.658 22.9537 165.083 23.196 186.482 23.0614C189.265 22.7383 191.838 23.6942 193.676 25.8484C193.571 29.4027 193.598 32.9571 193.624 36.5115C202.919 39.2581 212.726 36.7404 222.204 38.3291C222.532 42.8933 221.981 47.5786 223.162 52.0216C227.101 53.2198 231.341 52.2504 235.359 53.1256C238.129 57.2993 236.527 62.8867 237.013 67.6393C236.448 67.0604 235.293 65.8891 234.715 65.2967C234.374 61.9577 234.387 58.5918 234.4 55.2259C229.556 54.3373 224.423 54.7412 219.841 52.6544C219.841 48.6287 219.841 44.6166 219.946 40.591C210.586 38.1675 200.805 40.416 191.287 39.0157C190.893 34.5593 191.471 29.9413 190.316 25.606C167.761 25.1482 145.154 25.4041 122.574 25.5656C122.731 30.1702 122.39 34.7612 121.497 39.2715C112.321 39.6755 103.144 39.4062 93.9673 39.5408C93.7572 43.7549 93.7047 47.996 94.138 52.2101C90.0551 55.2124 84.8825 54.2296 80.1826 54.2969L80.2483 53.7853C83.6879 53.5295 87.2587 53.4218 90.3308 51.5907C90.5539 51.483 91.0134 51.2676 91.2366 51.1599C91.171 47.1074 91.1578 43.0548 91.6436 39.0292C91.9324 38.9754 92.51 38.8542 92.7989 38.7869C93.1139 38.3291 93.7441 37.4136 94.0592 36.9558C102.711 36.3769 111.375 36.9558 120.027 36.5654C120.093 32.1493 120.119 27.7333 120.289 23.3172C120.775 23.3037 121.76 23.2633 122.259 23.2499Z" fill="#000100"/>
<path d="M141.5 98V66L178.5 74.5L163 105L141.5 98Z" fill="#000100" stroke="#000100"/>
<path d="M93 98.5L53 86V109L43.5 124L53 138L82.5 120L93 98.5Z" fill="#000100" stroke="#000100"/>
<path d="M92.0503 38.3696C92.3391 37.8849 92.8905 36.929 93.1662 36.4443L94.0589 36.956C93.7438 37.4137 93.1137 38.3292 92.7986 38.787L92.0503 38.3696Z" fill="#000100"/>
<path d="M92.0505 38.3696L92.7988 38.787C92.51 38.8543 91.9324 38.9755 91.6436 39.0293L92.0505 38.3696Z" fill="#000100"/>
<path d="M78.6333 53.8661C78.8827 53.2737 79.3554 52.062 79.6048 51.4561C83.1757 51.2542 86.7597 51.4023 90.3306 51.5908C87.2586 53.4218 83.6877 53.5295 80.2481 53.7853L78.6333 53.8661Z" fill="#000100"/>
<path d="M122.574 25.5655C145.155 25.404 167.761 25.1482 190.316 25.6059C191.471 29.9412 190.893 34.5592 191.287 39.0157C200.805 40.4159 210.586 38.1675 219.946 40.5909C219.841 44.6165 219.841 48.6287 219.841 52.6543C224.423 54.7411 229.556 54.3372 234.401 55.2258C234.387 58.5917 234.374 61.9576 234.716 65.2966C235.293 65.889 236.449 67.0603 237.013 67.6393L237.066 68.1509C240.282 67.6797 243.525 67.5181 246.754 67.8547C247.923 68.2586 249.091 68.6221 250.273 68.9587C250.194 73.1189 250.259 77.2927 250.233 81.4664L253.069 80.4566L250.942 82.4357C255.498 82.2876 260.04 82.355 264.596 82.328L264.451 83.0012C261.589 97.3534 264.661 112.163 262.731 126.65C261.615 125.263 259.896 124.146 260.066 122.099C259.436 112.204 260.303 102.254 259.659 92.3449C259.16 92.8431 258.189 93.8259 257.703 94.3241C259.41 104.287 256.994 114.277 257.112 124.281C250.417 125.896 243.538 126.664 236.685 125.883C234.046 116.512 235.569 106.711 234.532 97.138C230.055 96.6398 225.565 96.2359 221.088 95.7782C220.76 91.4564 219.027 85.7613 222.874 82.5569C226.747 81.1163 231.302 83.836 235.149 81.8568C237.814 80.3085 237.63 76.7137 238.483 74.0749C236.409 72.1765 233.77 70.6686 232.523 68.0432C231.735 64.3541 231.972 60.5305 231.906 56.7741C229.543 57.0569 227.127 57.932 224.751 57.4069C221.85 56.0606 219.395 53.8525 216.441 52.6139C213.435 52.3042 210.441 53.0313 207.448 53.1794C200.858 53.7852 194.386 51.2271 187.808 52.2773C180.955 53.3544 174.024 53.3275 167.105 53.4756C166.803 62.7116 164.243 71.6514 162.943 80.7528C159.753 83.3917 154.423 83.3513 150.655 82.0992C148.699 77.8312 149.789 72.8631 149.5 68.3124C149.697 63.654 148.463 58.9418 149.277 54.3372C152.651 50.2174 158.611 52.9505 163.062 53.0986C164.427 48.4133 165.556 41.9777 161.867 38.2079C153.334 35.5421 144.196 37.6962 135.597 39.0964C134.718 43.2702 133.996 47.4708 133.339 51.6849C120.473 54.8489 107.175 52.7889 94.1382 52.21C93.705 47.9959 93.7575 43.7549 93.9675 39.5407C103.144 39.4061 112.321 39.6754 121.497 39.2715C122.39 34.7612 122.732 30.1701 122.574 25.5655Z" fill="#000100"/>
<path d="M135.597 39.0964C144.196 37.6962 153.334 35.5421 161.867 38.2079C165.556 41.9777 164.427 48.4133 163.062 53.0986C158.611 52.9505 152.651 50.2174 149.277 54.3372C148.463 58.9418 149.697 63.654 149.5 68.3124C149.789 72.8631 148.699 77.8312 150.655 82.0992C154.423 83.3513 159.753 83.3917 162.943 80.7528C164.243 71.6514 166.803 62.7116 167.105 53.4756C174.024 53.3275 180.955 53.3544 187.808 52.2773C194.386 51.2271 200.858 53.7852 207.448 53.1794C210.441 53.0313 213.435 52.3042 216.441 52.6139C219.395 53.8525 221.85 56.0606 224.751 57.4069C227.127 57.932 229.543 57.0569 231.906 56.7741C231.972 60.5305 231.735 64.3541 232.523 68.0432C233.77 70.6686 236.409 72.1765 238.483 74.0749C237.63 76.7137 237.814 80.3085 235.149 81.8568C231.302 83.836 226.747 81.1163 222.874 82.5569C219.027 85.7613 220.76 91.4564 221.088 95.7782C225.565 96.2359 230.055 96.6398 234.532 97.138C235.569 106.711 234.046 116.512 236.685 125.883C243.538 126.664 250.417 125.896 257.112 124.281C256.994 114.277 259.41 104.287 257.703 94.3241C258.189 93.8259 259.16 92.8431 259.659 92.3449C260.303 102.254 259.436 112.204 260.066 122.099C259.896 124.146 261.615 125.263 262.731 126.65C264.661 112.163 261.589 97.3534 264.451 83.0012C264.937 96.7879 264.674 110.615 264.595 124.415L266.433 123.473L264.753 125.667L267.405 125.061L266.866 126.798C271.002 126.664 275.15 126.758 279.286 126.475C278.958 126.704 278.288 127.189 277.947 127.431C277.737 141.554 278.052 155.705 277.789 169.841C274.1 169.868 270.359 169.612 266.709 170.272C262.705 172.48 265.107 178.189 264.425 181.932C260.526 183.52 256.39 183.749 252.32 182.847C252.189 171.578 252.386 160.309 252.36 149.04C252.137 145.742 252.412 141.702 249.695 139.346C245.507 138.606 241.161 138.592 236.987 139.266C232.523 142.012 233.219 147.936 233.363 152.473C229.976 152.931 226.681 153.874 223.412 154.897L222.545 155.126C222.572 146.172 222.467 137.233 222.519 128.279C221.587 127.35 220.655 126.421 219.723 125.492C216.191 125.506 212.66 125.506 209.142 125.358C208.603 125.344 207.514 125.304 206.975 125.277C206.988 120.834 206.936 116.391 206.831 111.961C202.065 111.961 197.3 111.921 192.534 111.746C192.442 106.859 192.403 101.985 192.324 97.111L190.631 97.0706C186.627 96.8687 182.57 97.0841 178.802 98.6189C178.736 97.7573 178.369 97.0572 177.699 96.5186C175.796 111.032 177.476 125.721 176.531 140.302C172.527 140.37 168.562 139.683 164.65 138.848C165.162 134.311 165.096 129.653 163.508 125.331C159.11 125.492 154.633 125.519 150.458 123.89C149.907 120.268 152.27 114.896 148.463 112.635C148.331 111.988 148.056 110.696 147.924 110.063C144.301 109.322 140.573 109.524 136.897 109.471C136.582 100.046 137.763 90.4869 135.768 81.1836C130.621 80.8739 125.449 80.847 120.303 81.1701C119.738 85.7074 119.265 90.2581 118.858 94.8222C115.445 95.1049 112.032 95.4281 108.618 95.8185C104.089 89.6253 107.673 81.9106 107.476 74.9365C107.319 72.5265 107.818 69.1606 105.336 67.8142C101.49 66.8987 97.4988 66.9795 93.5866 66.6833C92.8514 64.758 92.1162 62.8462 91.3942 60.9344C89.3199 60.3958 87.2457 59.8573 85.1714 59.3187C88.7291 57.6762 94.3483 57.4339 94.1382 52.21C107.175 52.7889 120.473 54.8489 133.339 51.6849C133.996 47.4708 134.718 43.2702 135.597 39.0964Z" fill="#000100"/>
<path d="M79.7751 65.3777C83.6216 65.3642 87.5864 65.9028 91.0522 67.7338C92.7589 72.0287 91.7874 76.7275 91.4067 81.1839C87.035 81.6821 82.6108 81.7359 78.2784 82.5842C75.2721 86.2597 76.7031 91.8471 75.9679 96.317C71.8062 96.1016 64.7695 98.727 63.3516 93.0184C62.3801 90.4469 60.5816 87.4041 62.8002 84.9134C66.5549 80.9012 66.1217 75.1792 66.1348 70.0226C70.7691 69.511 77.8846 71.1805 79.7751 65.3777Z" fill="#000100"/>
<path d="M51.7472 86.3811C52.8237 86.7042 54.9768 87.3639 56.0402 87.6871C53.3226 95.496 53.1126 104.193 55.6726 112.083C63.3657 112.635 71.0851 112.568 78.7914 112.716C82.9268 112.689 87.3379 112.568 90.9613 110.266C92.366 106.078 92.0378 101.501 92.5236 97.1385C95.3462 96.573 98.1687 95.6844 101.057 95.7787C102.317 96.775 103.473 97.9059 104.654 98.983C103.932 107.169 104.812 115.382 104.05 123.554C99.4291 125.102 92.2216 122.302 90.213 128.468C89.3991 136.412 90.0949 144.45 90.0817 152.433C86.7865 153.82 83.2157 153.793 79.7235 153.591C79.566 149.7 79.8548 145.729 78.9884 141.905C76.8353 137.974 71.8335 139.131 68.1969 138.983C65.2431 138.754 61.2783 140.222 61.2258 143.79C60.635 156.944 61.3702 170.125 60.9239 183.292C57.8387 183.427 54.7667 183.561 51.6947 183.736C50.7626 179.563 50.3162 175.295 50.4081 171.013C46.509 168.119 41.6253 168.482 37.0698 168.442C37.805 150.535 36.6891 132.588 37.6081 114.682C42.2292 114.453 49.0691 116.311 51.1302 110.521C52.3642 102.551 50.9727 94.4054 51.7472 86.3811Z" fill="#000100"/>
<path d="M80.1829 54.2971C84.8828 54.2297 90.0553 55.2124 94.1382 52.21C94.3483 57.4339 88.7291 57.6762 85.1714 59.3187C87.2457 59.8573 89.3199 60.3958 91.3942 60.9344C92.1162 62.8462 92.8514 64.758 93.5866 66.6833C97.4988 66.9795 101.49 66.8987 105.336 67.8142C107.818 69.1606 107.319 72.5265 107.476 74.9365C107.673 81.9106 104.089 89.6253 108.618 95.8185C107.345 95.9397 106.085 96.0746 104.811 96.1958C104.772 96.8959 104.693 98.2829 104.654 98.983C103.473 97.9059 102.317 96.775 101.057 95.7787C98.1687 95.6844 95.3462 96.573 92.5236 97.1385C92.0378 101.501 92.366 106.078 90.9613 110.266C87.3379 112.568 82.9268 112.689 78.7914 112.716C71.0851 112.568 63.3657 112.635 55.6726 112.083C53.1126 104.193 53.3226 95.496 56.0402 87.6871C54.9768 87.3639 52.8237 86.7042 51.7472 86.3811L51.9309 84.846C55.5543 84.7248 59.19 84.7787 62.8002 84.9134C60.5816 87.4041 62.3801 90.4469 63.3516 93.0184C64.7695 98.727 71.8062 96.1016 75.9679 96.317C76.7031 91.8471 75.2721 86.2597 78.2784 82.5842C82.6108 81.7359 87.035 81.6821 91.4067 81.1839C91.7874 76.7275 92.7589 72.0287 91.0522 67.7338C87.5864 65.9028 83.6216 65.3642 79.7751 65.3777C79.7488 61.6887 79.7759 57.9861 80.1829 54.2971Z" fill="#000100"/>
<path d="M50 85V116L91 80L250.5 83L252.5 70L237 66.5V52.5L222.5 50.5V36.5L193.5 35V23.5H119.5V36.5H93.5L91 50.5L80.5 52.5L79 66.5L66 70L64.5 85H50Z" fill="#000100" stroke="#000100"/>
<path d="M76.7827 53.9607C77.2422 53.9472 78.1743 53.8933 78.6338 53.8664L80.2486 53.7856L80.183 54.2973C79.776 57.9863 79.7497 61.6888 79.776 65.3778C77.8855 71.1806 70.77 69.5111 66.1357 70.0227C66.1226 75.1793 66.5558 80.9013 62.8012 84.9135C59.1909 84.7788 55.5544 84.725 51.931 84.8461L51.7472 86.381C50.9726 94.4053 52.3642 102.551 51.1301 110.521C49.069 116.311 42.2292 114.453 37.608 114.681C36.689 132.588 37.8049 150.535 37.0698 168.442C36.991 169.559 36.8991 170.663 36.8203 171.767C36.0458 171.188 34.4966 170.017 33.7221 169.438C33.5383 153.645 33.7221 137.839 33.6039 122.046C33.512 118.761 34.1684 115.557 34.641 112.339C35.4813 111.962 37.1485 111.221 37.9887 110.858C40.9163 110.696 43.8571 110.75 46.7847 110.831L46.4696 109.175L47.9662 109.269C47.6774 100.302 47.7956 91.3221 47.9531 82.3554C52.7843 82.2342 57.6811 82.2073 62.3942 80.9282C62.381 76.8488 62.4073 72.7558 62.2892 68.6764L63.9433 69.0803L63.6807 66.953C64.2978 67.2088 65.5056 67.7205 66.1226 67.9628L66.3852 66.024C68.3413 66.4953 70.3236 66.8992 72.306 67.2223C73.7239 66.603 75.2074 66.1856 76.7565 65.9971C76.7565 61.985 76.7959 57.9728 76.7827 53.9607Z" fill="#4A4B48"/>
<path d="M120.303 81.1703C125.449 80.8471 130.622 80.8741 135.768 81.1837C137.764 90.4871 136.582 100.046 136.897 109.471C140.573 109.525 144.301 109.323 147.925 110.063C148.056 110.696 148.332 111.988 148.463 112.635C144.84 112.904 141.216 113.214 137.593 113.335C136.871 112.837 135.427 111.827 134.705 111.329C134.035 102.052 135.203 92.6951 133.681 83.4995C130.097 83.5264 126.513 83.5264 122.929 83.7149C122.64 83.7418 122.075 83.7822 121.786 83.8091C121.498 88.2117 121.55 92.6412 121.379 97.0573C116.955 97.3266 112.518 97.4208 108.081 97.3266L107.989 98.1613C106.177 107.519 107.647 117.158 106.873 126.637C102.593 126.893 98.2999 126.96 94.007 126.933C93.8889 127.431 93.6526 128.427 93.5344 128.926C91.342 137.704 93.9939 146.967 92.1034 155.799C89.5697 156.863 86.7208 156.58 84.0295 156.674C81.5877 156.418 78.4106 157.172 76.9534 154.56C76.0607 150.723 78.1481 145.876 75.0761 142.834C71.7021 142.834 68.3413 142.901 64.9673 142.928C64.836 156.849 64.8098 170.77 64.9673 184.692C69.4309 184.544 74.0258 184.194 78.2137 186.065C78.1481 190.629 78.5682 195.18 79.3953 199.663C83.8326 199.408 88.3225 199.408 92.6154 200.754C93.4819 205.587 93.7182 210.515 92.576 215.335C88.3093 215.739 84.0033 215.927 79.7235 215.497C79.0408 215.429 77.6755 215.308 76.9928 215.254C76.8484 210.879 76.7433 206.503 76.704 202.141C76.0869 202.06 74.866 201.898 74.2621 201.818C70.2055 201.346 66.2145 200.512 62.171 200.04C62.3942 195.718 62.1841 191.383 61.7246 187.102C57.773 187.115 53.8214 187.048 49.8698 186.994C49.069 184.934 48.1763 182.915 47.3754 180.855C47.5986 178.135 47.7955 175.402 47.9531 172.682C44.2246 172.602 40.4962 172.373 36.8203 171.767C36.8991 170.663 36.991 169.559 37.0697 168.441C41.6253 168.482 46.509 168.118 50.4081 171.013C50.3162 175.294 50.7625 179.562 51.6946 183.736C54.7666 183.561 57.8387 183.426 60.9238 183.292C61.3702 170.124 60.635 156.943 61.2257 143.789C61.2783 140.222 65.243 138.754 68.1969 138.983C71.8334 139.131 76.8353 137.973 78.9883 141.905C79.8547 145.728 79.5659 149.7 79.7235 153.591C83.2156 153.793 86.7865 153.82 90.0817 152.433C90.0948 144.449 89.399 136.411 90.2129 128.468C92.2216 122.302 99.429 125.102 104.05 123.554C104.812 115.381 103.932 107.168 104.654 98.9826C104.693 98.2825 104.772 96.8957 104.812 96.1956C106.085 96.0745 107.345 95.9398 108.619 95.8187C112.032 95.4282 115.445 95.1051 118.859 94.8223C119.266 90.2582 119.738 85.7075 120.303 81.1703ZM65.0855 187.411C65.0198 190.764 64.8098 194.157 65.243 197.509C67.6586 200.148 72.713 200.067 75.1286 197.482C75.2336 194.197 76.6383 189.835 73.842 187.371C70.9275 187.156 67.9999 187.331 65.0855 187.411ZM79.4872 202.208C79.4609 205.857 79.4872 209.519 79.5397 213.167C82.5986 213.221 85.6574 213.302 88.7163 213.437C90.2523 210.259 90.9481 205.951 89.2546 202.787C86.2876 201.279 82.6905 202.41 79.4872 202.208Z" fill="#574932"/>
<path d="M121.786 83.8091C122.075 83.7822 122.639 83.7418 122.928 83.7148C123.269 93.0586 122.219 102.389 121.235 111.665C117.677 112.594 113.489 113.375 110.102 111.49C107.266 107.734 108.067 102.604 107.988 98.1613L108.08 97.3265C112.517 97.4208 116.955 97.3265 121.379 97.0573C121.55 92.6412 121.497 88.2117 121.786 83.8091Z" fill="#F2C884"/>
<path d="M122.928 83.7152C126.512 83.5267 130.096 83.5267 133.68 83.4998C135.203 92.6954 134.035 102.053 134.704 111.329C135.426 111.827 136.87 112.837 137.592 113.335C141.216 113.214 144.839 112.904 148.463 112.635C147.793 117.751 148.292 122.881 149.382 127.916C153.583 128.145 157.784 128.226 161.985 128.28C162.234 132.076 162.392 135.9 163.009 139.67C163.153 140.478 163.468 142.093 163.613 142.901C167.998 143.049 172.369 143.103 176.741 143.076C176.859 147.034 176.347 151.087 177.279 154.964C177.817 156.015 178.408 157.671 179.852 157.523C189.2 157.953 198.573 157.751 207.921 157.496C209.168 153.08 209.772 148.435 208.984 143.884C208.459 141.326 206.148 139.279 203.549 139.374C195.829 139.01 188.084 139.589 180.364 139.185C180.391 126.26 180.64 113.322 180.417 100.41L178.802 98.6194C182.57 97.0845 186.627 96.8691 190.631 97.0711C190.355 100.572 190.066 104.086 189.777 107.586C189.318 105.136 188.871 102.685 188.438 100.235C187.572 100.168 185.826 100.047 184.946 99.9792C184.382 102.726 183.2 105.54 183.922 108.38C184.618 112.083 188.136 114.022 190.657 116.337C191.221 121.669 191.458 127.337 194.307 132.009C194.95 132.79 195.383 134.419 196.696 133.773C200.135 132.736 201.973 127.701 205.978 128.535C210.205 129.195 214.472 129.478 218.738 129.451C218.948 138.768 218.686 148.085 218.988 157.401C224.147 158.748 229.49 158.842 234.768 158.344C235.477 158.452 236.868 158.654 237.577 158.761C235.45 166.22 235.345 174.096 237.105 181.649C232.93 185.594 232.037 191.316 231.932 196.863C231.42 196.836 230.383 196.769 229.871 196.742C230.751 193.726 232.037 190.401 230.435 187.371C228.965 183.588 222.637 184.154 221.731 188.112C220.655 190.885 222.257 193.645 222.887 196.311C222.047 197.402 221.206 198.492 220.405 199.61C220.261 200.068 219.959 200.983 219.802 201.441L219.644 202.168C218.686 206.086 217.937 210.084 217.74 214.124C217.333 210.246 216.848 206.301 215.443 202.653C213.789 200.7 211.045 200.741 208.813 199.987C208.498 203.932 208.236 207.89 208.039 211.862C206.831 212.939 205.61 214.002 204.389 215.053C200.949 215.47 197.497 215.887 194.044 215.578C188.924 213.531 183.449 214.42 178.106 214.474C177.739 214.474 176.977 214.487 176.61 214.487C176.111 214.5 175.1 214.541 174.601 214.554C173.472 215.228 172.382 215.955 171.266 216.655C160.987 213.141 149.959 216.143 139.404 213.962C137.894 218.593 138.301 223.454 139.128 228.18C138.118 227.318 137.12 226.443 136.109 225.594C136.083 221.852 135.951 218.109 135.807 214.379C130.28 213.895 124.7 213.868 119.239 214.891C115.708 215.429 112.15 215.726 108.592 215.86C106.689 211.485 106.242 206.597 104.286 202.262C102.067 199.946 98.654 201.899 96.7898 203.73C95.3851 207.432 94.9387 211.404 93.9541 215.228L92.5757 215.335C93.7178 210.515 93.4815 205.588 92.615 200.754C88.3221 199.408 83.8322 199.408 79.3949 199.664C78.5678 195.18 78.1477 190.63 78.2133 186.065C74.0254 184.194 69.4305 184.544 64.9669 184.692C64.8094 170.771 64.8356 156.849 64.9669 142.928C68.3409 142.901 71.7017 142.834 75.0757 142.834C74.4849 147.667 74.2486 152.541 73.7366 157.388C72.9358 153.416 72.0299 149.283 69.4305 146.105C66.201 153.376 68.3671 161.494 67.737 169.169C68.0915 172.979 66.4504 177.745 69.5224 180.693C74.6556 181.138 76.7561 175.739 77.4782 171.484C78.791 167.109 76.4804 162.948 74.9707 158.977C81.0228 158.694 87.0749 158.384 93.127 158.021C94.7024 148.381 93.5865 138.62 93.534 128.926C93.6522 128.428 93.8885 127.431 94.0066 126.933C98.2996 126.96 102.593 126.893 106.872 126.637C107.647 117.159 106.177 107.519 107.988 98.1616C108.067 102.605 107.266 107.734 110.102 111.491C113.489 113.375 117.677 112.595 121.235 111.666C122.219 102.389 123.27 93.0589 122.928 83.7152ZM107.109 140.168C103.393 145.351 103.735 152.474 107.187 157.711C115.642 157.523 124.097 157.859 132.551 157.617C134.376 157.846 135.886 156.095 135.899 154.305C136.188 149.579 136.884 144.476 134.704 140.087C125.501 140.155 116.298 140.114 107.109 140.168ZM81.6923 193.147C83.5303 196.365 87.6263 195.53 90.6195 195.086C92.4575 193.686 92.9695 191.262 93.9541 189.283C91.7748 186.752 88.9129 183.871 85.2895 185.042C82.6113 186.604 81.4298 190.131 81.6923 193.147Z" fill="#F7D3A3"/>
<path d="M177.7 96.519C178.37 97.0576 178.737 97.7577 178.803 98.6194L180.418 100.41C180.641 113.322 180.392 126.26 180.365 139.185C188.085 139.589 195.83 139.01 203.55 139.374C206.149 139.279 208.46 141.326 208.985 143.884C209.773 148.435 209.169 153.08 207.922 157.496C198.574 157.751 189.201 157.953 179.853 157.523C178.409 157.671 177.818 156.015 177.28 154.964C176.348 151.087 176.86 147.034 176.742 143.076C172.37 143.103 167.999 143.049 163.614 142.901C163.469 142.093 163.154 140.478 163.01 139.67L164.651 138.849C168.563 139.683 172.528 140.37 176.532 140.303C177.477 125.722 175.797 111.033 177.7 96.519ZM180.982 143.278C179.945 146.671 180.536 150.333 180.405 153.847C188.794 153.982 197.196 153.968 205.585 153.86C205.388 150.4 206.228 146.684 204.981 143.399C197.025 142.699 188.964 142.942 180.982 143.278Z" fill="#81735D"/>
<path d="M190.63 97.0708L192.324 97.1112C192.403 101.985 192.442 106.859 192.534 111.746C197.3 111.921 202.065 111.962 206.831 111.962C206.936 116.391 206.988 120.834 206.975 125.277C207.513 125.304 208.603 125.344 209.141 125.358C208.078 126.421 207.028 127.472 205.977 128.535C201.973 127.7 200.135 132.736 196.696 133.773C195.383 134.419 194.95 132.79 194.306 132.009C191.457 127.337 191.221 121.669 190.657 116.337C188.136 114.021 184.618 112.083 183.922 108.38C183.2 105.539 184.381 102.726 184.946 99.9789C185.825 100.046 187.571 100.167 188.438 100.235C188.871 102.685 189.318 105.135 189.777 107.586C190.066 104.085 190.355 100.571 190.63 97.0708Z" fill="#F5CC8E"/>
<path d="M32.9738 110.602L34.6411 112.338C34.1685 115.556 33.5121 118.76 33.604 122.046C33.7221 137.838 33.5383 153.645 33.7221 169.437C34.733 171.592 35.862 173.678 36.9648 175.792C35.7307 182.995 36.4922 190.266 36.8729 197.509C36.4528 207.634 37.4768 217.745 37.3455 227.869C41.0477 228.395 44.763 228.771 48.4914 229.027C50.0931 233.349 51.1564 237.859 51.8654 242.437C55.6332 242.962 59.506 243.218 63.1557 244.416C65.3743 248.321 65.2299 253.127 66.162 257.462C74.2491 258.176 82.4936 256.695 90.4756 258.257C94.716 261.138 93.7576 267.614 95.123 272.138C103.197 272.946 111.402 271.451 119.397 272.744C123.309 275.732 122.522 281.428 122.994 285.857C131.777 287.648 140.744 286.584 149.632 286.827C163.088 286.49 176.61 287.594 190.04 286.194C191.156 281.67 189.804 274.076 195.515 272.636C203.208 271.613 211.006 272.555 218.739 272.205C219.802 267.91 219.08 262.807 221.588 259.091C229.753 255.887 238.877 258.472 247.437 257.435C248.369 253.073 248.277 248.267 250.443 244.308C253.778 242.195 258.018 243.07 261.721 242.141C264.162 238.761 263.283 234.009 264.596 230.118C268.285 228.314 272.591 228.327 276.201 226.335C278.039 224.382 277.474 221.447 277.698 218.997C277.685 207.768 277.58 196.553 277.658 185.324C277.816 181.73 276.752 178.283 275.44 174.998C275.965 174.432 277.028 173.288 277.553 172.723C280.691 169.814 279.733 165.021 279.969 161.157C279.575 150.413 280.481 139.616 279.575 128.912L277.947 127.431C278.288 127.189 278.958 126.704 279.286 126.475L280.192 125.842C280.993 127.606 281.754 129.437 281.597 131.443C281.544 143.143 281.347 154.843 281.597 166.529C281.846 171.484 280.113 176.358 281.072 181.285C281.741 185.378 280.389 189.417 280.35 193.51C279.969 199.771 282.503 205.964 281.059 212.198C279.47 218.256 283.29 224.557 280.153 230.374C275.847 231.585 271.252 231.909 267.221 234.036C267.011 238.519 266.578 243.501 262.771 246.422C259.699 246.57 256.443 246.086 253.515 247.244C249.196 250.65 254.5 259.078 248.093 260.896C240.19 262.942 231.696 259.778 223.924 262.861C223.806 267.075 224.725 272.946 220.209 275.14C212.148 278.142 203.116 274.225 195.068 277.402C194.688 280.862 194.556 284.457 193.191 287.702C190.329 291.377 185.262 290.946 181.152 290.987C163.639 290.933 146.126 290.919 128.626 291C126.001 291 122.994 290.987 121.051 288.886C118.334 285.655 119.121 281.091 118.964 277.16C110.943 275.086 102.632 277.065 94.5322 275.921C89.6485 273.605 89.8192 267.668 89.8979 262.982C82.9793 260.438 75.6013 261.825 68.4332 261.461C65.3875 261.609 62.6568 259.32 61.5672 256.533C61.0158 253.706 61.0683 250.825 60.9764 247.971C57.2742 246.288 53.0338 246.705 49.371 245.022C45.4588 242.397 47.5462 236.836 45.5507 233.214C41.7697 231.518 36.5184 232.582 33.8271 228.852C31.3853 221.811 32.6325 214.177 32.3568 206.866C32.6587 196.997 31.661 187.075 33.092 177.287C33.2889 173.638 31.9367 170.097 32.0023 166.449C32.0811 150.292 32.068 134.136 32.0417 117.98C32.0023 115.475 32.4618 113.025 32.9738 110.602Z" fill="#E8E0B3"/>
<path d="M148.463 112.635C152.27 114.897 149.907 120.269 150.459 123.89C154.633 125.519 159.11 125.492 163.508 125.331C165.097 129.653 165.162 134.311 164.65 138.848L163.009 139.67C162.392 135.9 162.235 132.076 161.985 128.279C157.784 128.226 153.583 128.145 149.382 127.916C148.293 122.881 147.794 117.751 148.463 112.635Z" fill="#8B7D64"/>
<path d="M209.142 125.358C212.661 125.506 216.192 125.506 219.724 125.493C220.656 126.422 221.588 127.351 222.52 128.28C222.468 137.233 222.573 146.173 222.546 155.126C225.553 156.957 229.032 156.944 232.419 156.971C233.01 157.307 234.178 157.994 234.769 158.344C229.491 158.842 224.148 158.748 218.989 157.402C218.687 148.085 218.949 138.768 218.739 129.451C214.473 129.478 210.206 129.195 205.979 128.536C207.029 127.472 208.079 126.422 209.142 125.358Z" fill="#B7A88B"/>
<path d="M92.1035 155.799C93.994 146.967 91.3421 137.704 93.5345 128.926C93.587 138.619 94.7029 148.38 93.1275 158.02C87.0754 158.384 81.0233 158.694 74.9711 158.976C76.4809 162.948 78.7915 167.108 77.4786 171.484C76.7566 175.738 74.6561 181.137 69.5229 180.693C66.4509 177.745 68.0919 172.978 67.7375 169.168C68.3676 161.494 66.2015 153.375 69.431 146.105C72.0304 149.282 72.9363 153.416 73.7371 157.388C74.2491 152.541 74.4854 147.667 75.0762 142.833C78.1482 145.876 76.0608 150.723 76.9535 154.56C78.4107 157.172 81.5878 156.418 84.0296 156.674C86.7209 156.58 89.5698 156.862 92.1035 155.799Z" fill="#F3C780"/>
<path d="M277.79 169.841C278.052 155.705 277.737 141.554 277.947 127.431L279.575 128.912C280.481 139.616 279.575 150.414 279.969 161.157C279.733 165.021 280.691 169.815 277.553 172.723C273.943 172.803 270.346 172.75 266.749 172.857C266.591 177.933 266.329 183.049 264.832 187.937C260.749 187.6 256.64 187.627 252.557 187.977C252.701 192.73 252.111 197.442 251.205 202.087C246.781 201.925 242.356 201.885 237.919 201.925C237.853 206.584 238.077 211.229 238.169 215.887C237.801 216.21 237.42 216.506 237.026 216.789C231.434 216.331 225.08 218.122 220.17 214.594C220.209 210.448 219.92 206.301 219.645 202.168L219.802 201.441C224.331 199.179 229.399 199.313 234.309 199.434C235.149 194.897 233.298 187.64 237.893 185.123C241.976 186.227 246.177 186.052 250.247 185.001C254.881 186.186 259.659 186.307 264.399 185.877C264.399 184.894 264.412 182.928 264.425 181.932C265.108 178.189 262.705 172.48 266.709 170.272C270.359 169.613 274.101 169.868 277.79 169.841ZM237.184 187.29C237.158 191.329 237.158 195.368 237.223 199.408C241.372 199.461 245.691 200.242 249.735 198.977C250.391 195.099 250.063 191.154 250.141 187.236C245.822 186.994 241.49 186.981 237.184 187.29ZM222.782 202.383C222.664 206.409 222.349 210.582 223.898 214.406C227.613 214.096 231.565 214.944 235.123 213.679C236.291 210.044 235.477 206.005 235.714 202.221C231.421 201.669 226.918 200.417 222.782 202.383Z" fill="#897D4F"/>
<path d="M236.987 139.266C241.162 138.593 245.507 138.606 249.695 139.346C252.413 141.703 252.137 145.742 252.36 149.04C252.387 160.309 252.19 171.578 252.321 182.847C256.391 183.749 260.526 183.521 264.425 181.932C264.412 182.928 264.399 184.894 264.399 185.877C259.66 186.307 254.881 186.186 250.247 185.002C246.177 186.052 241.976 186.227 237.893 185.123C241.923 184.692 245.993 184.759 250.037 184.571C250.115 170.784 250.142 157.011 250.076 143.224C246.702 142.793 243.341 142.322 239.994 141.73C239.245 142.133 237.722 142.941 236.974 143.345C236.935 147.344 236.922 151.343 236.895 155.355C232.405 155.005 227.916 154.52 223.413 154.897C226.682 153.874 229.977 152.931 233.364 152.473C233.219 147.936 232.524 142.012 236.987 139.266Z" fill="#473E24"/>
<path d="M107.109 140.168C116.299 140.114 125.502 140.155 134.705 140.087C136.884 144.477 136.188 149.579 135.899 154.305C135.886 156.096 134.376 157.846 132.551 157.617C124.097 157.859 115.642 157.523 107.188 157.711C103.735 152.474 103.394 145.352 107.109 140.168ZM108.067 154.049C116.588 153.847 125.095 153.982 133.615 153.941C134.232 150.872 134.455 147.748 134.442 144.611C132.657 143.642 130.766 142.861 128.705 143.049C121.97 143.022 115.235 143.171 108.501 142.982C106.899 146.483 106.899 150.401 108.067 154.049Z" fill="#7E715B"/>
<path d="M236.974 143.345C237.722 142.941 239.245 142.134 239.994 141.73C243.341 142.322 246.702 142.793 250.076 143.224C250.142 157.011 250.115 170.784 250.037 184.571C245.993 184.759 241.923 184.692 237.893 185.123C233.298 187.641 235.149 194.897 234.309 199.435C229.399 199.314 224.331 199.179 219.802 201.441C219.96 200.983 220.262 200.067 220.406 199.61C221.207 198.492 222.047 197.402 222.887 196.311C225.211 196.446 227.535 196.594 229.872 196.742C230.384 196.769 231.421 196.836 231.933 196.863C232.038 191.316 232.93 185.594 237.105 181.649C240.19 181.488 243.276 181.313 246.361 181.124C246.321 171.888 247.004 162.639 246.413 153.416C246.348 150.643 244.418 148.583 242.974 146.442C240.4 150.144 238.589 154.345 237.578 158.761C236.869 158.653 235.477 158.452 234.768 158.344C234.178 157.994 233.009 157.307 232.419 156.971C229.031 156.944 225.552 156.957 222.546 155.126L223.413 154.897C227.916 154.52 232.405 155.005 236.895 155.355C236.921 151.343 236.935 147.344 236.974 143.345Z" fill="#D7BF92"/>
<path d="M108.067 154.049C106.899 150.4 106.899 146.482 108.501 142.982C115.235 143.17 121.97 143.022 128.705 143.049C130.766 142.861 132.657 143.642 134.442 144.611C134.455 147.748 134.232 150.872 133.615 153.941C125.095 153.982 116.588 153.847 108.067 154.049Z" fill="#040200"/>
<path d="M180.982 143.278C188.964 142.941 197.025 142.699 204.981 143.399C206.228 146.684 205.387 150.4 205.584 153.86C197.195 153.968 188.793 153.981 180.404 153.847C180.536 150.333 179.945 146.671 180.982 143.278Z" fill="#040400"/>
<path d="M79.4874 202.208C82.6906 202.41 86.2878 201.279 89.2548 202.787C90.9483 205.951 90.2525 210.259 88.7165 213.437C85.6576 213.302 82.5987 213.221 79.5399 213.167C79.4874 209.519 79.4611 205.857 79.4874 202.208Z" fill="#040400"/>
<path d="M237.578 158.761C238.588 154.345 240.4 150.145 242.973 146.442C244.417 148.583 246.347 150.643 246.413 153.416C247.004 162.639 246.321 171.888 246.36 181.124C243.275 181.313 240.19 181.488 237.105 181.649C235.346 174.096 235.451 166.22 237.578 158.761Z" fill="#F6CA80"/>
<path d="M33.7222 169.438C34.4967 170.017 36.0459 171.188 36.8204 171.767C40.4963 172.373 44.2248 172.602 47.9532 172.683C47.7957 175.402 47.5987 178.135 47.3756 180.855C46.7717 185.998 47.52 191.168 47.0211 196.311C46.5091 202.855 46.5616 209.492 48.0451 215.914C52.2724 217.045 56.6047 216.547 60.8451 215.766C61.2653 220.492 61.0158 225.271 61.6197 229.984C64.823 233.605 70.1137 230.711 74.0784 230.415C76.7172 234.911 76.8879 240.189 76.9798 245.292C85.6707 244.242 94.4141 247.715 102.947 245.157C105.862 249.008 105.783 253.935 106.046 258.567C115.393 261.058 125.134 258.917 134.652 260.129C134.508 264.572 134.862 269.015 135.506 273.417C148.45 274.575 161.526 275.356 174.47 274.117C181.034 273.431 179.827 264.599 177.7 260.25C175.113 258.89 172.107 259.025 169.285 258.917C158.126 258.984 146.953 259.065 135.794 259.025C135.164 254.286 137.147 247.365 132.512 244.417C124.11 243.259 115.59 244.484 107.149 243.838C106.965 239.287 106.571 234.736 105.954 230.226C97.066 228.435 88.0338 229.714 79.0672 229.391C78.0038 224.773 77.2555 219.805 79.7236 215.497C84.0034 215.928 88.3095 215.739 92.5761 215.335L93.9546 215.228C98.8383 215.376 103.709 215.982 108.593 215.86C112.15 215.726 115.708 215.43 119.24 214.891C118.872 220.371 118.99 225.918 120.513 231.222C125.738 231.761 131.252 233.363 136.149 230.536C143.711 229.916 151.299 230.724 158.861 230.388C164.506 230.118 170.177 230.428 175.691 231.815C176.374 226.066 176.649 220.276 176.61 214.487C176.978 214.487 177.739 214.474 178.107 214.474C177.949 219.213 177.542 223.992 178.041 228.745C182.045 233 188.596 231.505 193.546 230.038C193.756 225.218 193.834 220.398 194.044 215.578C197.497 215.887 200.95 215.47 204.39 215.053C208.84 215.362 213.304 215.739 217.767 215.739C217.767 215.335 217.754 214.528 217.741 214.124C217.938 210.085 218.686 206.086 219.645 202.168C219.92 206.301 220.209 210.448 220.17 214.595C225.08 218.122 231.434 216.332 237.026 216.789C236.475 220.909 235.989 225.029 235.503 229.162C226.97 231.074 218.2 229.405 209.641 230.59C205.715 233.956 207.33 239.583 208.052 243.999C216.796 243.73 225.605 244.996 234.283 243.838C237.171 240.162 236.317 234.898 237.079 230.495C241.424 230.468 245.757 229.93 250.023 229.001C250.155 224.45 250.417 219.9 250.864 215.362C255.143 215.389 259.489 215.699 263.69 214.676C266.447 206.032 263.335 196.783 264.832 187.937C266.329 183.05 266.591 177.934 266.749 172.858C270.346 172.75 273.943 172.804 277.553 172.723C277.028 173.289 275.965 174.433 275.44 174.998C276.752 178.284 277.816 181.73 277.658 185.325C277.58 196.554 277.685 207.769 277.698 218.997C277.475 221.448 278.039 224.383 276.201 226.335C272.591 228.328 268.285 228.314 264.596 230.118C263.283 234.009 264.162 238.762 261.721 242.141C258.018 243.07 253.778 242.195 250.443 244.309C248.277 248.267 248.369 253.074 247.437 257.436C238.877 258.473 229.753 255.888 221.588 259.092C219.08 262.808 219.802 267.911 218.739 272.206C211.006 272.556 203.208 271.613 195.515 272.636C189.804 274.077 191.156 281.67 190.04 286.194C176.61 287.594 163.088 286.49 149.632 286.827C140.744 286.585 131.777 287.648 122.994 285.858C122.522 281.428 123.309 275.733 119.397 272.744C111.402 271.452 103.197 272.946 95.123 272.138C93.7577 267.614 94.7161 261.139 90.4756 258.257C82.4936 256.696 74.2491 258.177 66.1621 257.463C65.23 253.128 65.3744 248.321 63.1557 244.417C59.5061 243.218 55.6332 242.963 51.8654 242.438C51.1565 237.86 50.0931 233.35 48.4915 229.028C44.763 228.772 41.0477 228.395 37.3456 227.87C37.4768 217.745 36.4528 207.634 36.8729 197.51C36.4922 190.266 35.7308 182.996 36.9648 175.793C35.8621 173.679 34.733 171.592 33.7222 169.438ZM178.868 244.955C177.857 249.56 177.765 254.286 178.606 258.93C188.032 258.742 197.55 261.125 206.884 258.715C207.698 254.407 208.026 249.008 205.676 245.359C196.933 243.407 187.717 243.703 178.868 244.955Z" fill="#D9C477"/>
<path d="M47.0211 196.311C47.52 191.168 46.7717 185.998 47.3756 180.855C48.1764 182.915 49.0691 184.934 49.87 186.994C52.9682 195.517 49.7781 204.632 51.3272 213.396C54.2285 213.383 57.1299 213.37 60.0444 213.356C60.2544 210.017 60.4382 206.665 60.8189 203.326C61.2522 203.272 62.1055 203.137 62.5387 203.07C63.1689 206.947 63.8515 210.811 64.6524 214.662C67.8819 214.702 71.0983 214.783 74.3279 214.689C74.3673 214.218 74.4461 213.275 74.4986 212.804C74.6824 209.425 74.7349 206.045 74.8268 202.679L76.3234 202.626C76.5597 206.826 76.796 211.04 76.9929 215.254C77.6756 215.308 79.0409 215.429 79.7236 215.497C77.2555 219.805 78.0038 224.773 79.0672 229.391C88.0338 229.714 97.0661 228.435 105.954 230.226C106.571 234.736 106.965 239.287 107.149 243.838C115.59 244.484 124.11 243.259 132.512 244.417C137.147 247.365 135.164 254.285 135.794 259.025C146.953 259.065 158.126 258.984 169.285 258.917C172.107 259.025 175.114 258.89 177.7 260.25C179.827 264.599 181.034 273.431 174.47 274.117C161.526 275.356 148.45 274.575 135.506 273.417C134.862 269.015 134.508 264.572 134.652 260.129C125.134 258.917 115.393 261.058 106.046 258.567C105.783 253.935 105.862 249.008 102.948 245.157C94.4141 247.715 85.6707 244.242 76.9798 245.292C76.8879 240.189 76.7172 234.911 74.0785 230.414C70.1137 230.711 64.823 233.605 61.6197 229.984C61.0158 225.271 61.2653 220.492 60.8452 215.766C56.6048 216.547 52.2724 217.045 48.0451 215.914C46.5616 209.492 46.5091 202.854 47.0211 196.311ZM83.8196 232.151C82.2968 232.703 80.1306 232.636 79.2247 234.238C78.6865 236.715 79.8812 239.125 80.3669 241.508C88.1913 243.865 96.5147 243.393 104.523 242.491C104.904 238.829 103.932 235.275 102.908 231.815C96.5672 231.249 90.1081 230.926 83.8196 232.151ZM107.844 246.234C108.251 249.937 108.501 253.666 108.553 257.395C116.929 258.096 125.344 257.826 133.733 257.786C133.983 253.881 133.943 249.91 132.315 246.288C124.163 246.059 115.997 246.005 107.844 246.234ZM136.858 262.35C136.792 265.312 136.753 268.274 136.727 271.25C149.71 271.559 162.72 271.626 175.704 271.371C175.862 268.759 176.256 266.133 175.914 263.521C175.087 261.583 172.816 261.085 170.952 261.394C159.635 262.781 148.227 261.65 136.858 262.35Z" fill="#BFA95C"/>
<path d="M81.6925 193.147C81.4299 190.131 82.6115 186.604 85.2896 185.042C88.913 183.871 91.775 186.752 93.9543 189.283C92.9697 191.262 92.4577 193.686 90.6197 195.086C87.6265 195.53 83.5305 196.365 81.6925 193.147Z" fill="#F2CA7F"/>
<path d="M221.732 188.112C222.638 184.154 228.966 183.588 230.436 187.372C232.038 190.401 230.751 193.726 229.871 196.742C227.535 196.594 225.211 196.446 222.887 196.311C222.257 193.646 220.655 190.886 221.732 188.112Z" fill="#F5C883"/>
<path d="M49.8696 186.994C53.8212 187.048 57.7728 187.115 61.7244 187.102C62.1839 191.383 62.394 195.718 62.1708 200.04C66.2143 200.511 70.2053 201.346 74.2619 201.817C71.1637 202.046 68.0916 202.49 65.0196 202.8C64.4026 202.867 63.1554 203.002 62.5384 203.069C62.1052 203.137 61.2518 203.271 60.8186 203.325C60.4379 206.664 60.2541 210.017 60.044 213.356C57.1296 213.369 54.2282 213.383 51.3269 213.396C49.7777 204.631 52.9679 195.516 49.8696 186.994Z" fill="#B69F5F"/>
<path d="M65.0859 187.412C68.0003 187.331 70.9279 187.156 73.8424 187.371C76.6387 189.835 75.234 194.197 75.129 197.482C72.7134 200.067 67.659 200.148 65.2434 197.509C64.8102 194.157 65.0202 190.764 65.0859 187.412Z" fill="#070100"/>
<path d="M237.183 187.29C241.489 186.98 245.822 186.994 250.141 187.236C250.062 191.154 250.39 195.099 249.734 198.977C245.691 200.242 241.371 199.461 237.223 199.407C237.157 195.368 237.157 191.329 237.183 187.29Z" fill="#0A0100"/>
<path d="M252.557 187.977C256.64 187.627 260.749 187.6 264.832 187.937C263.335 196.782 266.447 206.032 263.69 214.675C259.489 215.699 255.143 215.389 250.863 215.362C250.417 219.899 250.154 224.45 250.023 229.001C245.756 229.93 241.424 230.468 237.079 230.495C236.317 234.898 237.171 240.162 234.282 243.837C225.605 244.995 216.795 243.73 208.052 243.999C207.33 239.583 205.715 233.955 209.641 230.589C218.2 229.405 226.97 231.074 235.503 229.162C235.989 225.029 236.475 220.909 237.026 216.789C237.42 216.506 237.801 216.21 238.168 215.887C241.805 215.322 245.454 214.81 249.104 214.312C249.957 210.259 250.627 206.18 251.205 202.087C252.11 197.442 252.701 192.73 252.557 187.977Z" fill="#B9A05B"/>
<path d="M208.813 199.986C211.045 200.74 213.789 200.7 215.443 202.652C216.848 206.301 217.334 210.246 217.741 214.123C217.754 214.527 217.767 215.335 217.767 215.739C213.303 215.739 208.84 215.362 204.389 215.052C205.61 214.002 206.831 212.938 208.039 211.861C208.236 207.889 208.498 203.931 208.813 199.986Z" fill="#F4CA82"/>
<path d="M74.2618 201.818C74.8657 201.898 76.0867 202.06 76.7037 202.141C76.7431 206.503 76.8481 210.879 76.9925 215.254C76.7956 211.04 76.5593 206.826 76.323 202.625L74.8263 202.679C74.7344 206.045 74.6819 209.425 74.4981 212.804C73.9993 212.804 73.0278 212.831 72.542 212.831C70.2577 209.317 67.8684 205.857 65.0195 202.8C68.0915 202.491 71.1636 202.047 74.2618 201.818Z" fill="#DFCB8B"/>
<path d="M96.7898 203.729C98.654 201.898 102.067 199.946 104.286 202.262C106.242 206.597 106.689 211.484 108.592 215.86C103.708 215.981 98.8378 215.375 93.9541 215.227C94.9387 211.404 95.3851 207.432 96.7898 203.729Z" fill="#F5C980"/>
<path d="M222.782 202.383C226.917 200.417 231.42 201.669 235.713 202.221C235.477 206.005 236.291 210.044 235.122 213.679C231.565 214.944 227.613 214.096 223.898 214.406C222.349 210.582 222.664 206.408 222.782 202.383Z" fill="#0B0300"/>
<path d="M62.5386 203.07C63.1556 203.002 64.4028 202.868 65.0198 202.801C67.8686 205.857 70.258 209.317 72.5423 212.831C73.0281 212.831 73.9995 212.804 74.4984 212.804C74.4459 213.275 74.3671 214.218 74.3277 214.689C71.0982 214.783 67.8818 214.702 64.6522 214.662C63.8514 210.811 63.1687 206.947 62.5386 203.07Z" fill="#D6C074"/>
<path d="M237.92 201.926C242.357 201.885 246.782 201.926 251.206 202.087C250.628 206.18 249.959 210.26 249.105 214.312C245.456 214.81 241.806 215.322 238.17 215.887C238.078 211.229 237.854 206.584 237.92 201.926Z" fill="#D5C378"/>
<path d="M119.239 214.891C124.7 213.867 130.28 213.894 135.807 214.379C135.951 218.108 136.082 221.851 136.109 225.594C136.122 226.819 136.135 229.297 136.148 230.535C131.251 233.363 125.737 231.761 120.512 231.222C118.989 225.917 118.871 220.37 119.239 214.891ZM121.536 217.179C121.733 220.963 121.064 224.881 122.048 228.57C125.685 229.674 129.636 228.96 133.391 229.27C134.756 225.433 134.297 221.313 134.363 217.314C130.45 214.945 125.593 215.483 121.536 217.179Z" fill="#93855E"/>
<path d="M139.405 213.962C149.96 216.143 160.988 213.141 171.267 216.655C172.383 215.955 173.473 215.227 174.602 214.554C175.101 214.541 176.112 214.5 176.611 214.487C176.65 220.276 176.374 226.066 175.692 231.815C170.178 230.428 164.506 230.118 158.861 230.388C151.299 230.724 143.711 229.916 136.149 230.536C136.136 229.297 136.123 226.82 136.11 225.594C137.121 226.443 138.118 227.318 139.129 228.179C138.302 223.454 137.895 218.593 139.405 213.962Z" fill="#FBDCA9"/>
<path d="M178.106 214.473C183.449 214.419 188.924 213.531 194.044 215.577C193.834 220.397 193.755 225.217 193.545 230.037C188.595 231.505 182.044 232.999 178.04 228.745C177.541 223.992 177.948 219.212 178.106 214.473ZM180.574 216.816C180.758 220.707 179.931 224.827 181.139 228.583C184.342 229.189 187.611 228.906 190.853 228.879C191.234 224.773 191.195 220.639 190.735 216.546C187.348 216.627 183.961 216.654 180.574 216.816Z" fill="#776A48"/>
<path d="M121.537 217.18C125.593 215.483 130.451 214.945 134.363 217.314C134.297 221.313 134.757 225.433 133.392 229.27C129.637 228.96 125.685 229.674 122.049 228.57C121.064 224.881 121.734 220.963 121.537 217.18Z" fill="#251E1D"/>
<path d="M180.575 216.816C183.962 216.655 187.349 216.628 190.736 216.547C191.195 220.64 191.235 224.773 190.854 228.88C187.611 228.907 184.343 229.189 181.139 228.584C179.931 224.827 180.758 220.707 180.575 216.816Z" fill="#241E1B"/>
<path d="M83.8193 232.151C90.1077 230.926 96.5668 231.249 102.908 231.815C103.932 235.275 104.903 238.829 104.523 242.491C96.5143 243.393 88.191 243.865 80.3665 241.509C79.8808 239.125 78.6861 236.715 79.2244 234.238C80.1302 232.636 82.2964 232.703 83.8193 232.151Z" fill="#B99F59"/>
<path d="M178.867 244.955C187.716 243.703 196.932 243.407 205.675 245.359C208.025 249.007 207.697 254.406 206.883 258.715C197.549 261.125 188.031 258.742 178.605 258.93C177.765 254.285 177.857 249.559 178.867 244.955Z" fill="#BA9F59"/>
<path d="M107.844 246.234C115.997 246.005 124.163 246.059 132.315 246.288C133.943 249.91 133.983 253.882 133.733 257.786C125.344 257.826 116.929 258.096 108.553 257.396C108.501 253.666 108.251 249.937 107.844 246.234Z" fill="#B9A15A"/>
<path d="M136.857 262.35C148.226 261.65 159.634 262.781 170.951 261.394C172.815 261.084 175.086 261.582 175.913 263.521C176.255 266.133 175.861 268.758 175.703 271.37C162.72 271.626 149.709 271.559 136.726 271.249C136.752 268.274 136.791 265.312 136.857 262.35Z" fill="#B79E59"/>
<path d="M118.5 93.5L120.5 79L123.5 46L72 74L70 129L102 122.5V97L118.5 93.5Z" fill="#000100" stroke="#000100"/>
<path d="M251.5 82.5H264V125.5L255.5 129.5L238 134L222.5 121L210 109.5L199 96L169.5 78L217 62L251.5 82.5Z" fill="#000100" stroke="#000100"/>
</svg>
